<svg xmlns="http://www.w3.org/2000/svg" width="140.598" height="79.377" viewBox="0 0 140.598 79.377"><g transform="translate(-134 -3109.623)"><g transform="translate(170.08 3123.771)"><path d="M-23.11,21.4A16.246,16.246,0,0,0-6.926,5.093,16.246,16.246,0,0,0-23.11-11.214h-.119l-.008-.014h-16.05V4.627q-.007.233-.007.467A16.246,16.246,0,0,0-23.111,21.4Z" transform="translate(39.294 43.827)" fill="#008d36"/><path d="M-23.11-22.577A16.246,16.246,0,0,0-39.294-6.27,16.246,16.246,0,0,0-23.11,10.037h.12l.008.014h16.05V-5.8q.007-.233.007-.467A16.246,16.246,0,0,0-23.109-22.577Z" transform="translate(39.294 22.577)" fill="#008d36"/></g><path d="M154.134,60.891v42.841h.02a16.116,16.116,0,0,0,4.7,10.8l.085.084,0,.017,4.41,4.41,6.939,6.939,7.066-7.065,4.144-4.145q.17-.161.335-.326a16.378,16.378,0,0,0,4.779-10.712h.055V60.892c-7.812,2.749-14.032,11.63-16.268,23.23-2.236-11.6-8.455-20.481-16.267-23.23Z" transform="translate(51.939 3063.018)" fill="#008d36"/><path d="M145.226,60.834a16.247,16.247,0,0,0-16.185,16.308q0,.233.006.467v31.735q0,.1,0,.2t0,.2v.052q0,.107,0,.214v.009q0,.107.006.213,0,.032,0,.065,0,.149.011.3,0,.039,0,.079,0,.06.009.119t.006.1v.009q.007.107.014.213v.006q.008.107.017.213v.009q.009.106.02.212v.006q.023.214.052.427v.011q.014.106.03.212l.012.081q.028.181.06.362.018.106.038.211l0,.006q.02.105.041.21l0,.006q.022.108.046.215l.006.026q.02.091.041.183l0,.006q.025.107.051.213v0q.026.1.053.207l.009.034q.053.2.11.4.03.1.061.205l.033.105.032.105,0,.006q.033.1.067.2l.04.117.031.092,0,.006q.035.1.072.2l0,.006q.037.1.075.2l0,.006q.038.1.078.2l.046.114.036.09,0,.006q.04.1.082.2l0,.006q.085.2.175.4l0,.006q.045.1.09.194l.038.079.058.119,0,.006q.047.1.1.192l0,.006q.048.1.1.19l0,.006q.049.095.1.188l0,.006q.051.094.1.187l0,.006q.1.181.207.359l.009.017,0,.006.111.183,0,.006.113.181,0,.006.116.18.078.119.043.065,0,.006.12.176,0,.006.125.178,0,0,.125.173.017.023q.11.149.223.3l.026.032.04.052q.116.148.235.293l.141.169.077.09.066.078.006.006.141.161,0,.006.143.158,0,.006.146.157.11.115.042.045.006.006.153.157h0l.151.15.006.006.153.148.006.006.156.146.084.078.078.072.006.006q.161.145.325.287l.006,0,.163.138.044.036.126.1.006,0,.166.133.1.08.071.055.006,0,.169.128.006,0,.171.126.006,0,.173.124.006,0,.175.121.051.034.131.089.006,0,.179.117.006,0,.18.114.006,0,.181.112.006,0,.183.109.006,0,.187.109,0,0,.186.1.006,0,.187.1.125.066.069.037.006,0,.189.1.006,0,.191.094.043.02.162.077.193.089.006,0,.194.086.006,0,.2.083.068.029.134.055.006,0,.2.078.006,0,.2.076.006,0,.2.072.006,0,.2.07.078.026.13.043.006,0,.2.064.006,0,.2.061.152.044.059.017.006,0,.205.056.006,0,.209.053h0l.207.05.143.033.075.017h0l.207.045.006,0,.208.041.115.02.1.02h.006l.081.014.27.045.075.011h.009l.21.03h.006l.211.026h.006l.212.026h.006l.211.02h.009l.212.02.093.009.132.009.212.011.14.006.079,0h.006l.212.009h.04q.2.005.4.006h0q.2,0,.4-.006.169,0,.338-.011l.14-.006.107-.006.105-.006.132-.009q.264-.02.528-.049l.1-.011.119-.014q.245-.03.488-.067l.291-.049.188-.034q.273-.05.545-.11l.207-.048.217-.053q.244-.061.487-.13l.152-.044q.152-.045.3-.093l.245-.079q.337-.113.669-.24.184-.071.366-.146t.363-.155q.151-.067.3-.137l.162-.077.068-.033q.138-.067.275-.137l.092-.047.188-.1q.2-.1.388-.214.352-.2.694-.419l.059-.038q.159-.1.315-.209l.232-.16q.306-.216.6-.445l.173-.136.169-.136.1-.085.153-.129.181-.157.159-.142.083-.076q.283-.259.554-.532.155-.156.305-.316l.006-.006.064-.069q.136-.147.269-.3.2-.226.392-.46.119-.145.235-.293l.1-.133.072-.093q.131-.174.258-.352.191-.268.371-.543l0-.006.058-.09q.155-.241.3-.487.106-.178.207-.359.25-.445.472-.906l.085-.18q.056-.118.109-.238l.032-.072q.106-.242.205-.487.065-.159.126-.32.1-.252.183-.506l.04-.117.042-.127q.031-.094.06-.188t.055-.183l.038-.128q.058-.2.11-.4.032-.122.062-.244.049-.2.094-.4l.006-.026q.071-.323.128-.649.032-.181.06-.362.039-.256.071-.514v0q.012-.106.023-.213.015-.137.029-.273.014-.154.026-.308.006-.093.011-.186t.012-.2q.013-.269.017-.539,0-.025,0-.051,0-.1,0-.207,0-.123,0-.246t-.006-.217V93.461H145.335l-.009.014h-.238l-.009-.014.009-.014h.119a16.308,16.308,0,0,0,0-32.616Z" transform="translate(4.959 3062.907)" fill="#008d36"/><g transform="translate(242.229 3109.623)"><g transform="translate(0.001 14.148)"><path d="M-23.11,21.4A16.246,16.246,0,0,0-6.926,5.093,16.246,16.246,0,0,0-23.11-11.214h-.119l-.008-.014h-16.05V4.627q-.007.233-.007.467A16.246,16.246,0,0,0-23.111,21.4Z" transform="translate(39.294 43.827)" fill="#008d36"/><path d="M-23.11-22.577A16.246,16.246,0,0,0-39.294-6.27,16.246,16.246,0,0,0-23.11,10.037h.12l.008.014h16.05V-5.8q.007-.233.007-.467A16.246,16.246,0,0,0-23.109-22.577Z" transform="translate(39.294 22.577)" fill="#008d36"/></g><path d="M71.66-31.377a16.371,16.371,0,0,0-11.5,4.8,16.388,16.388,0,0,0-4.649,9.344,16.105,16.105,0,0,0-4.594-9.431,16.122,16.122,0,0,0-11.473-4.715l-.118,0a16.384,16.384,0,0,0,4.725,9.986,16.246,16.246,0,0,0,22.974.087,16.111,16.111,0,0,0,4.66-10.076H71.66Z" transform="translate(-39.322 31.378)" fill="#008d36"/></g></g></svg>